<?xml version="1.0" encoding="utf-8" ?>
<svg baseProfile="tiny" height="600px" version="1.2" viewBox="-50,-500,400,400" width="800px" xmlns="http://www.w3.org/2000/svg" xmlns:ev="http://www.w3.org/2001/xml-events" xmlns:xlink="http://www.w3.org/1999/xlink"><defs /><rect fill="white" height="400" width="400" x="-50" y="-500" /><g id="objects" transform="scale(1, -1)"><circle cx="0.0" cy="300" fill="orange" r="5" /><line stroke="blue" stroke-width="3" x1="100" x2="100" y1="200" y2="400" /><polygon fill="blue" points="100.0,190.0 110.0,210.0 90.0,210.0" /><polygon fill="blue" points="100.0,410.0 110.0,390.0 90.0,390.0" /><line stroke="blue" stroke-width="2" x1="92.0" x2="108.0" y1="300.0" y2="300.0" /><line stroke="black" stroke-width="3" x1="300" x2="300" y1="100" y2="500" /></g><g id="rays" transform="scale(1, -1)"><line id="ray-b1.000" stroke="red" stroke-opacity="1.0" stroke-width="1" x1="0.0" x2="418.7565" y1="300" y2="10291.2283" /><line id="ray-b1.000" stroke="red" stroke-opacity="1.0" stroke-width="1" x1="0.0" x2="836.7784" y1="300" y2="10264.9286" /><line id="ray-b1.000" stroke="red" stroke-opacity="1.0" stroke-width="1" x1="0.0" x2="1253.3323" y1="300" y2="10221.147" /><line id="ray-b1.000" stroke="red" stroke-opacity="1.0" stroke-width="1" x1="0.0" x2="1667.6875" y1="300" y2="10159.9604" /><line id="ray-b1.000" stroke="red" stroke-opacity="1.0" stroke-width="1" x1="0.0" x2="2079.1169" y1="300" y2="10081.476" /><line id="ray-b1.000" stroke="red" stroke-opacity="1.0" stroke-width="1" x1="0.0" x2="2486.8989" y1="300" y2="9985.8316" /><line id="ray-b1.000" stroke="red" stroke-opacity="1.0" stroke-width="1" x1="0.0" x2="2890.318" y1="300" y2="9873.195" /><line id="ray-b1.000" stroke="red" stroke-opacity="1.0" stroke-width="1" x1="0.0" x2="3288.6665" y1="300" y2="9743.7637" /><line id="ray-b1.000" stroke="red" stroke-opacity="1.0" stroke-width="1" x1="0.0" x2="3681.2455" y1="300" y2="9597.7649" /><line id="ray-b1.000" stroke="red" stroke-opacity="1.0" stroke-width="1" x1="0.0" x2="4067.3664" y1="300" y2="9435.4546" /><line id="ray-b1.000" stroke="red" stroke-opacity="1.0" stroke-width="1" x1="0.0" x2="4446.3518" y1="300" y2="9257.1176" /><line id="ray-b1.000" stroke="red" stroke-opacity="1.0" stroke-width="1" x1="0.0" x2="4817.5367" y1="300" y2="9063.0668" /><line id="ray-b1.000" stroke="red" stroke-opacity="1.0" stroke-width="1" x1="0.0" x2="5180.2701" y1="300" y2="8853.6426" /><line id="ray-b1.000" stroke="red" stroke-opacity="1.0" stroke-width="1" x1="0.0" x2="5533.9155" y1="300" y2="8629.2124" /><line id="ray-b1.000" stroke="red" stroke-opacity="1.0" stroke-width="1" x1="0.0" x2="5877.8525" y1="300" y2="8390.1699" /><line id="ray-b1.000" stroke="red" stroke-opacity="1.0" stroke-width="1" x1="0.0" x2="6211.4778" y1="300" y2="8136.9346" /><line id="ray-b1.000" stroke="red" stroke-opacity="1.0" stroke-width="1" x1="0.0" x2="6534.206" y1="300" y2="7869.9506" /><line id="ray-b1.000" stroke="red" stroke-opacity="1.0" stroke-width="1" x1="0.0" x2="6845.4711" y1="300" y2="7589.6863" /><line id="ray-b1.000" stroke="red" stroke-opacity="1.0" stroke-width="1" x1="0.0" x2="100.0" y1="300" y2="397.9272" /><line id="ray-b1.000" stroke="red" stroke-opacity="1.0" stroke-width="1" x1="0.0" x2="100.0" y1="300" y2="390.0404" /><line id="ray-b1.000" stroke="red" stroke-opacity="1.0" stroke-width="1" x1="0.0" x2="100.0" y1="300" y2="382.7272" /><line id="ray-b1.000" stroke="red" stroke-opacity="1.0" stroke-width="1" x1="0.0" x2="100.0" y1="300" y2="375.9041" /><line id="ray-b1.000" stroke="red" stroke-opacity="1.0" stroke-width="1" x1="0.0" x2="100.0" y1="300" y2="369.5018" /><line id="ray-b1.000" stroke="red" stroke-opacity="1.0" stroke-width="1" x1="0.0" x2="100.0" y1="300" y2="363.4619" /><line id="ray-b1.000" stroke="red" stroke-opacity="1.0" stroke-width="1" x1="0.0" x2="100.0" y1="300" y2="357.735" /><line id="ray-b1.000" stroke="red" stroke-opacity="1.0" stroke-width="1" x1="0.0" x2="100.0" y1="300" y2="352.2787" /><line id="ray-b1.000" stroke="red" stroke-opacity="1.0" stroke-width="1" x1="0.0" x2="100.0" y1="300" y2="347.0564" /><line id="ray-b1.000" stroke="red" stroke-opacity="1.0" stroke-width="1" x1="0.0" x2="100.0" y1="300" y2="342.0361" /><line id="ray-b1.000" stroke="red" stroke-opacity="1.0" stroke-width="1" x1="0.0" x2="100.0" y1="300" y2="337.1897" /><line id="ray-b1.000" stroke="red" stroke-opacity="1.0" stroke-width="1" x1="0.0" x2="100.0" y1="300" y2="332.492" /><line id="ray-b1.000" stroke="red" stroke-opacity="1.0" stroke-width="1" x1="0.0" x2="100.0" y1="300" y2="327.9205" /><line id="ray-b1.000" stroke="red" stroke-opacity="1.0" stroke-width="1" x1="0.0" x2="100.0" y1="300" y2="323.4548" /><line id="ray-b1.000" stroke="red" stroke-opacity="1.0" stroke-width="1" x1="0.0" x2="100.0" y1="300" y2="319.076" /><line id="ray-b1.000" stroke="red" stroke-opacity="1.0" stroke-width="1" x1="0.0" x2="100.0" y1="300" y2="314.7667" /><line id="ray-b1.000" stroke="red" stroke-opacity="1.0" stroke-width="1" x1="0.0" x2="100.0" y1="300" y2="310.5104" /><line id="ray-b1.000" stroke="red" stroke-opacity="1.0" stroke-width="1" x1="0.0" x2="100.0" y1="300" y2="306.2915" /><line id="ray-b1.000" stroke="red" stroke-opacity="1.0" stroke-width="1" x1="0.0" x2="100.0" y1="300" y2="302.0947" /><line id="ray-b1.000" stroke="red" stroke-opacity="1.0" stroke-width="1" x1="0.0" x2="100.0" y1="300" y2="297.9053" /><line id="ray-b1.000" stroke="red" stroke-opacity="1.0" stroke-width="1" x1="0.0" x2="100.0" y1="300" y2="293.7085" /><line id="ray-b1.000" stroke="red" stroke-opacity="1.0" stroke-width="1" x1="0.0" x2="100.0" y1="300" y2="289.4896" /><line id="ray-b1.000" stroke="red" stroke-opacity="1.0" stroke-width="1" x1="0.0" x2="100.0" y1="300" y2="285.2333" /><line id="ray-b1.000" stroke="red" stroke-opacity="1.0" stroke-width="1" x1="0.0" x2="100.0" y1="300" y2="280.924" /><line id="ray-b1.000" stroke="red" stroke-opacity="1.0" stroke-width="1" x1="0.0" x2="100.0" y1="300" y2="276.5452" /><line id="ray-b1.000" stroke="red" stroke-opacity="1.0" stroke-width="1" x1="0.0" x2="100.0" y1="300" y2="272.0795" /><line id="ray-b1.000" stroke="red" stroke-opacity="1.0" stroke-width="1" x1="0.0" x2="100.0" y1="300" y2="267.508" /><line id="ray-b1.000" stroke="red" stroke-opacity="1.0" stroke-width="1" x1="0.0" x2="100.0" y1="300" y2="262.8103" /><line id="ray-b1.000" stroke="red" stroke-opacity="1.0" stroke-width="1" x1="0.0" x2="100.0" y1="300" y2="257.9639" /><line id="ray-b1.000" stroke="red" stroke-opacity="1.0" stroke-width="1" x1="0.0" x2="100.0" y1="300" y2="252.9436" /><line id="ray-b1.000" stroke="red" stroke-opacity="1.0" stroke-width="1" x1="0.0" x2="100.0" y1="300" y2="247.7213" /><line id="ray-b1.000" stroke="red" stroke-opacity="1.0" stroke-width="1" x1="0.0" x2="100.0" y1="300" y2="242.265" /><line id="ray-b1.000" stroke="red" stroke-opacity="1.0" stroke-width="1" x1="0.0" x2="100.0" y1="300" y2="236.5381" /><line id="ray-b1.000" stroke="red" stroke-opacity="1.0" stroke-width="1" x1="0.0" x2="100.0" y1="300" y2="230.4982" /><line id="ray-b1.000" stroke="red" stroke-opacity="1.0" stroke-width="1" x1="0.0" x2="100.0" y1="300" y2="224.0959" /><line id="ray-b1.000" stroke="red" stroke-opacity="1.0" stroke-width="1" x1="0.0" x2="100.0" y1="300" y2="217.2728" /><line id="ray-b1.000" stroke="red" stroke-opacity="1.0" stroke-width="1" x1="0.0" x2="100.0" y1="300" y2="209.9596" /><line id="ray-b1.000" stroke="red" stroke-opacity="1.0" stroke-width="1" x1="0.0" x2="100.0" y1="300" y2="202.0728" /><line id="ray-b1.000" stroke="red" stroke-opacity="1.0" stroke-width="1" x1="0.0" x2="6845.4711" y1="300" y2="-6989.6863" /><line id="ray-b1.000" stroke="red" stroke-opacity="1.0" stroke-width="1" x1="0.0" x2="6534.206" y1="300" y2="-7269.9506" /><line id="ray-b1.000" stroke="red" stroke-opacity="1.0" stroke-width="1" x1="0.0" x2="6211.4778" y1="300" y2="-7536.9346" /><line id="ray-b1.000" stroke="red" stroke-opacity="1.0" stroke-width="1" x1="0.0" x2="5877.8525" y1="300" y2="-7790.1699" /><line id="ray-b1.000" stroke="red" stroke-opacity="1.0" stroke-width="1" x1="0.0" x2="5533.9155" y1="300" y2="-8029.2124" /><line id="ray-b1.000" stroke="red" stroke-opacity="1.0" stroke-width="1" x1="0.0" x2="5180.2701" y1="300" y2="-8253.6426" /><line id="ray-b1.000" stroke="red" stroke-opacity="1.0" stroke-width="1" x1="0.0" x2="4817.5367" y1="300" y2="-8463.0668" /><line id="ray-b1.000" stroke="red" stroke-opacity="1.0" stroke-width="1" x1="0.0" x2="4446.3518" y1="300" y2="-8657.1176" /><line id="ray-b1.000" stroke="red" stroke-opacity="1.0" stroke-width="1" x1="0.0" x2="4067.3664" y1="300" y2="-8835.4546" /><line id="ray-b1.000" stroke="red" stroke-opacity="1.0" stroke-width="1" x1="0.0" x2="3681.2455" y1="300" y2="-8997.7649" /><line id="ray-b1.000" stroke="red" stroke-opacity="1.0" stroke-width="1" x1="0.0" x2="3288.6665" y1="300" y2="-9143.7637" /><line id="ray-b1.000" stroke="red" stroke-opacity="1.0" stroke-width="1" x1="0.0" x2="2890.318" y1="300" y2="-9273.195" /><line id="ray-b1.000" stroke="red" stroke-opacity="1.0" stroke-width="1" x1="0.0" x2="2486.8989" y1="300" y2="-9385.8316" /><line id="ray-b1.000" stroke="red" stroke-opacity="1.0" stroke-width="1" x1="0.0" x2="2079.1169" y1="300" y2="-9481.476" /><line id="ray-b1.000" stroke="red" stroke-opacity="1.0" stroke-width="1" x1="0.0" x2="1667.6875" y1="300" y2="-9559.9604" /><line id="ray-b1.000" stroke="red" stroke-opacity="1.0" stroke-width="1" x1="0.0" x2="1253.3323" y1="300" y2="-9621.147" /><line id="ray-b1.000" stroke="red" stroke-opacity="1.0" stroke-width="1" x1="0.0" x2="836.7784" y1="300" y2="-9664.9286" /><line id="ray-b1.000" stroke="red" stroke-opacity="1.0" stroke-width="1" x1="0.0" x2="418.7565" y1="300" y2="-9691.2283" /><line id="ray-b1.000" stroke="red" stroke-opacity="1.0" stroke-width="1" x1="0.0" x2="0.0" y1="300" y2="-9700.0" /><line id="ray-b1.000" stroke="red" stroke-opacity="1.0" stroke-width="1" x1="0.0" x2="-418.7565" y1="300" y2="-9691.2283" /><line id="ray-b1.000" stroke="red" stroke-opacity="1.0" stroke-width="1" x1="0.0" x2="-836.7784" y1="300" y2="-9664.9286" /><line id="ray-b1.000" stroke="red" stroke-opacity="1.0" stroke-width="1" x1="0.0" x2="-1253.3323" y1="300" y2="-9621.147" /><line id="ray-b1.000" stroke="red" stroke-opacity="1.0" stroke-width="1" x1="0.0" x2="-1667.6875" y1="300" y2="-9559.9604" /><line id="ray-b1.000" stroke="red" stroke-opacity="1.0" stroke-width="1" x1="0.0" x2="-2079.1169" y1="300" y2="-9481.476" /><line id="ray-b1.000" stroke="red" stroke-opacity="1.0" stroke-width="1" x1="0.0" x2="-2486.8989" y1="300" y2="-9385.8316" /><line id="ray-b1.000" stroke="red" stroke-opacity="1.0" stroke-width="1" x1="0.0" x2="-2890.318" y1="300" y2="-9273.195" /><line id="ray-b1.000" stroke="red" stroke-opacity="1.0" stroke-width="1" x1="0.0" x2="-3288.6665" y1="300" y2="-9143.7637" /><line id="ray-b1.000" stroke="red" stroke-opacity="1.0" stroke-width="1" x1="0.0" x2="-3681.2455" y1="300" y2="-8997.7649" /><line id="ray-b1.000" stroke="red" stroke-opacity="1.0" stroke-width="1" x1="0.0" x2="-4067.3664" y1="300" y2="-8835.4546" /><line id="ray-b1.000" stroke="red" stroke-opacity="1.0" stroke-width="1" x1="0.0" x2="-4446.3518" y1="300" y2="-8657.1176" /><line id="ray-b1.000" stroke="red" stroke-opacity="1.0" stroke-width="1" x1="0.0" x2="-4817.5367" y1="300" y2="-8463.0668" /><line id="ray-b1.000" stroke="red" stroke-opacity="1.0" stroke-width="1" x1="0.0" x2="-5180.2701" y1="300" y2="-8253.6426" /><line id="ray-b1.000" stroke="red" stroke-opacity="1.0" stroke-width="1" x1="0.0" x2="-5533.9155" y1="300" y2="-8029.2124" /><line id="ray-b1.000" stroke="red" stroke-opacity="1.0" stroke-width="1" x1="0.0" x2="-5877.8525" y1="300" y2="-7790.1699" /><line id="ray-b1.000" stroke="red" stroke-opacity="1.0" stroke-width="1" x1="0.0" x2="-6211.4778" y1="300" y2="-7536.9346" /><line id="ray-b1.000" stroke="red" stroke-opacity="1.0" stroke-width="1" x1="0.0" x2="-6534.206" y1="300" y2="-7269.9506" /><line id="ray-b1.000" stroke="red" stroke-opacity="1.0" stroke-width="1" x1="0.0" x2="-6845.4711" y1="300" y2="-6989.6863" /><line id="ray-b1.000" stroke="red" stroke-opacity="1.0" stroke-width="1" x1="0.0" x2="-7144.7268" y1="300" y2="-6696.6334" /><line id="ray-b1.000" stroke="red" stroke-opacity="1.0" stroke-width="1" x1="0.0" x2="-7431.4483" y1="300" y2="-6391.3061" /><line id="ray-b1.000" stroke="red" stroke-opacity="1.0" stroke-width="1" x1="0.0" x2="-7705.1324" y1="300" y2="-6074.2399" /><line id="ray-b1.000" stroke="red" stroke-opacity="1.0" stroke-width="1" x1="0.0" x2="-7965.2992" y1="300" y2="-5745.9911" /><line id="ray-b1.000" stroke="red" stroke-opacity="1.0" stroke-width="1" x1="0.0" x2="-8211.4921" y1="300" y2="-5407.1357" /><line id="ray-b1.000" stroke="red" stroke-opacity="1.0" stroke-width="1" x1="0.0" x2="-8443.2793" y1="300" y2="-5058.2679" /><line id="ray-b1.000" stroke="red" stroke-opacity="1.0" stroke-width="1" x1="0.0" x2="-8660.254" y1="300" y2="-4700.0" /><line id="ray-b1.000" stroke="red" stroke-opacity="1.0" stroke-width="1" x1="0.0" x2="-8862.0358" y1="300" y2="-4332.9604" /><line id="ray-b1.000" stroke="red" stroke-opacity="1.0" stroke-width="1" x1="0.0" x2="-9048.2705" y1="300" y2="-3957.7929" /><line id="ray-b1.000" stroke="red" stroke-opacity="1.0" stroke-width="1" x1="0.0" x2="-9218.6315" y1="300" y2="-3575.1559" /><line id="ray-b1.000" stroke="red" stroke-opacity="1.0" stroke-width="1" x1="0.0" x2="-9372.8199" y1="300" y2="-3185.7205" /><line id="ray-b1.000" stroke="red" stroke-opacity="1.0" stroke-width="1" x1="0.0" x2="-9510.5652" y1="300" y2="-2790.1699" /><line id="ray-b1.000" stroke="red" stroke-opacity="1.0" stroke-width="1" x1="0.0" x2="-9631.6257" y1="300" y2="-2389.1982" /><line id="ray-b1.000" stroke="red" stroke-opacity="1.0" stroke-width="1" x1="0.0" x2="-9735.789" y1="300" y2="-1983.5087" /><line id="ray-b1.000" stroke="red" stroke-opacity="1.0" stroke-width="1" x1="0.0" x2="-9822.8725" y1="300" y2="-1573.8131" /><line id="ray-b1.000" stroke="red" stroke-opacity="1.0" stroke-width="1" x1="0.0" x2="-9892.7233" y1="300" y2="-1160.8303" /><line id="ray-b1.000" stroke="red" stroke-opacity="1.0" stroke-width="1" x1="0.0" x2="-9945.219" y1="300" y2="-745.2846" /><line id="ray-b1.000" stroke="red" stroke-opacity="1.0" stroke-width="1" x1="0.0" x2="-9980.2673" y1="300" y2="-327.9052" /><line id="ray-b1.000" stroke="red" stroke-opacity="1.0" stroke-width="1" x1="0.0" x2="-9997.8068" y1="300" y2="90.5758" /><line id="ray-b1.000" stroke="red" stroke-opacity="1.0" stroke-width="1" x1="0.0" x2="-9997.8068" y1="300" y2="509.4242" /><line id="ray-b1.000" stroke="red" stroke-opacity="1.0" stroke-width="1" x1="0.0" x2="-9980.2673" y1="300" y2="927.9052" /><line id="ray-b1.000" stroke="red" stroke-opacity="1.0" stroke-width="1" x1="0.0" x2="-9945.219" y1="300" y2="1345.2846" /><line id="ray-b1.000" stroke="red" stroke-opacity="1.0" stroke-width="1" x1="0.0" x2="-9892.7233" y1="300" y2="1760.8303" /><line id="ray-b1.000" stroke="red" stroke-opacity="1.0" stroke-width="1" x1="0.0" x2="-9822.8725" y1="300" y2="2173.8131" /><line id="ray-b1.000" stroke="red" stroke-opacity="1.0" stroke-width="1" x1="0.0" x2="-9735.789" y1="300" y2="2583.5087" /><line id="ray-b1.000" stroke="red" stroke-opacity="1.0" stroke-width="1" x1="0.0" x2="-9631.6257" y1="300" y2="2989.1982" /><line id="ray-b1.000" stroke="red" stroke-opacity="1.0" stroke-width="1" x1="0.0" x2="-9510.5652" y1="300" y2="3390.1699" /><line id="ray-b1.000" stroke="red" stroke-opacity="1.0" stroke-width="1" x1="0.0" x2="-9372.8199" y1="300" y2="3785.7205" /><line id="ray-b1.000" stroke="red" stroke-opacity="1.0" stroke-width="1" x1="0.0" x2="-9218.6315" y1="300" y2="4175.1559" /><line id="ray-b1.000" stroke="red" stroke-opacity="1.0" stroke-width="1" x1="0.0" x2="-9048.2705" y1="300" y2="4557.7929" /><line id="ray-b1.000" stroke="red" stroke-opacity="1.0" stroke-width="1" x1="0.0" x2="-8862.0358" y1="300" y2="4932.9604" /><line id="ray-b1.000" stroke="red" stroke-opacity="1.0" stroke-width="1" x1="0.0" x2="-8660.254" y1="300" y2="5300.0" /><line id="ray-b1.000" stroke="red" stroke-opacity="1.0" stroke-width="1" x1="0.0" x2="-8443.2793" y1="300" y2="5658.2679" /><line id="ray-b1.000" stroke="red" stroke-opacity="1.0" stroke-width="1" x1="0.0" x2="-8211.4921" y1="300" y2="6007.1357" /><line id="ray-b1.000" stroke="red" stroke-opacity="1.0" stroke-width="1" x1="0.0" x2="-7965.2992" y1="300" y2="6345.9911" /><line id="ray-b1.000" stroke="red" stroke-opacity="1.0" stroke-width="1" x1="0.0" x2="-7705.1324" y1="300" y2="6674.2399" /><line id="ray-b1.000" stroke="red" stroke-opacity="1.0" stroke-width="1" x1="0.0" x2="-7431.4483" y1="300" y2="6991.3061" /><line id="ray-b1.000" stroke="red" stroke-opacity="1.0" stroke-width="1" x1="0.0" x2="-7144.7268" y1="300" y2="7296.6334" /><line id="ray-b1.000" stroke="red" stroke-opacity="1.0" stroke-width="1" x1="0.0" x2="-6845.4711" y1="300" y2="7589.6863" /><line id="ray-b1.000" stroke="red" stroke-opacity="1.0" stroke-width="1" x1="0.0" x2="-6534.206" y1="300" y2="7869.9506" /><line id="ray-b1.000" stroke="red" stroke-opacity="1.0" stroke-width="1" x1="0.0" x2="-6211.4778" y1="300" y2="8136.9346" /><line id="ray-b1.000" stroke="red" stroke-opacity="1.0" stroke-width="1" x1="0.0" x2="-5877.8525" y1="300" y2="8390.1699" /><line id="ray-b1.000" stroke="red" stroke-opacity="1.0" stroke-width="1" x1="0.0" x2="-5533.9155" y1="300" y2="8629.2124" /><line id="ray-b1.000" stroke="red" stroke-opacity="1.0" stroke-width="1" x1="0.0" x2="-5180.2701" y1="300" y2="8853.6426" /><line id="ray-b1.000" stroke="red" stroke-opacity="1.0" stroke-width="1" x1="0.0" x2="-4817.5367" y1="300" y2="9063.0668" /><line id="ray-b1.000" stroke="red" stroke-opacity="1.0" stroke-width="1" x1="0.0" x2="-4446.3518" y1="300" y2="9257.1176" /><line id="ray-b1.000" stroke="red" stroke-opacity="1.0" stroke-width="1" x1="0.0" x2="-4067.3664" y1="300" y2="9435.4546" /><line id="ray-b1.000" stroke="red" stroke-opacity="1.0" stroke-width="1" x1="0.0" x2="-3681.2455" y1="300" y2="9597.7649" /><line id="ray-b1.000" stroke="red" stroke-opacity="1.0" stroke-width="1" x1="0.0" x2="-3288.6665" y1="300" y2="9743.7637" /><line id="ray-b1.000" stroke="red" stroke-opacity="1.0" stroke-width="1" x1="0.0" x2="-2890.318" y1="300" y2="9873.195" /><line id="ray-b1.000" stroke="red" stroke-opacity="1.0" stroke-width="1" x1="0.0" x2="-2486.8989" y1="300" y2="9985.8316" /><line id="ray-b1.000" stroke="red" stroke-opacity="1.0" stroke-width="1" x1="0.0" x2="-2079.1169" y1="300" y2="10081.476" /><line id="ray-b1.000" stroke="red" stroke-opacity="1.0" stroke-width="1" x1="0.0" x2="-1667.6875" y1="300" y2="10159.9604" /><line id="ray-b1.000" stroke="red" stroke-opacity="1.0" stroke-width="1" x1="0.0" x2="-1253.3323" y1="300" y2="10221.147" /><line id="ray-b1.000" stroke="red" stroke-opacity="1.0" stroke-width="1" x1="0.0" x2="-836.7784" y1="300" y2="10264.9286" /><line id="ray-b1.000" stroke="red" stroke-opacity="1.0" stroke-width="1" x1="0.0" x2="-418.7565" y1="300" y2="10291.2283" /><line id="ray-b1.000" stroke="red" stroke-opacity="1.0" stroke-width="1" x1="100.0" x2="300.0" y1="397.9272" y2="397.9272" /><line id="ray-b1.000" stroke="red" stroke-opacity="1.0" stroke-width="1" x1="100.0" x2="300.0" y1="390.0404" y2="390.0404" /><line id="ray-b1.000" stroke="red" stroke-opacity="1.0" stroke-width="1" x1="100.0" x2="300.0" y1="382.7272" y2="382.7272" /><line id="ray-b1.000" stroke="red" stroke-opacity="1.0" stroke-width="1" x1="100.0" x2="300.0" y1="375.9041" y2="375.9041" /><line id="ray-b1.000" stroke="red" stroke-opacity="1.0" stroke-width="1" x1="100.0" x2="300.0" y1="369.5018" y2="369.5018" /><line id="ray-b1.000" stroke="red" stroke-opacity="1.0" stroke-width="1" x1="100.0" x2="300.0" y1="363.4619" y2="363.4619" /><line id="ray-b1.000" stroke="red" stroke-opacity="1.0" stroke-width="1" x1="100.0" x2="300.0" y1="357.735" y2="357.735" /><line id="ray-b1.000" stroke="red" stroke-opacity="1.0" stroke-width="1" x1="100.0" x2="300.0" y1="352.2787" y2="352.2787" /><line id="ray-b1.000" stroke="red" stroke-opacity="1.0" stroke-width="1" x1="100.0" x2="300.0" y1="347.0564" y2="347.0564" /><line id="ray-b1.000" stroke="red" stroke-opacity="1.0" stroke-width="1" x1="100.0" x2="300.0" y1="342.0361" y2="342.0361" /><line id="ray-b1.000" stroke="red" stroke-opacity="1.0" stroke-width="1" x1="100.0" x2="300.0" y1="337.1897" y2="337.1897" /><line id="ray-b1.000" stroke="red" stroke-opacity="1.0" stroke-width="1" x1="100.0" x2="300.0" y1="332.492" y2="332.492" /><line id="ray-b1.000" stroke="red" stroke-opacity="1.0" stroke-width="1" x1="100.0" x2="300.0" y1="327.9205" y2="327.9205" /><line id="ray-b1.000" stroke="red" stroke-opacity="1.0" stroke-width="1" x1="100.0" x2="300.0" y1="323.4548" y2="323.4548" /><line id="ray-b1.000" stroke="red" stroke-opacity="1.0" stroke-width="1" x1="100.0" x2="300.0" y1="319.076" y2="319.076" /><line id="ray-b1.000" stroke="red" stroke-opacity="1.0" stroke-width="1" x1="100.0" x2="300.0" y1="314.7667" y2="314.7667" /><line id="ray-b1.000" stroke="red" stroke-opacity="1.0" stroke-width="1" x1="100.0" x2="300.0" y1="310.5104" y2="310.5104" /><line id="ray-b1.000" stroke="red" stroke-opacity="1.0" stroke-width="1" x1="100.0" x2="300.0" y1="306.2915" y2="306.2915" /><line id="ray-b1.000" stroke="red" stroke-opacity="1.0" stroke-width="1" x1="100.0" x2="300.0" y1="302.0947" y2="302.0947" /><line id="ray-b1.000" stroke="red" stroke-opacity="1.0" stroke-width="1" x1="100.0" x2="300.0" y1="297.9053" y2="297.9053" /><line id="ray-b1.000" stroke="red" stroke-opacity="1.0" stroke-width="1" x1="100.0" x2="300.0" y1="293.7085" y2="293.7085" /><line id="ray-b1.000" stroke="red" stroke-opacity="1.0" stroke-width="1" x1="100.0" x2="300.0" y1="289.4896" y2="289.4896" /><line id="ray-b1.000" stroke="red" stroke-opacity="1.0" stroke-width="1" x1="100.0" x2="300.0" y1="285.2333" y2="285.2333" /><line id="ray-b1.000" stroke="red" stroke-opacity="1.0" stroke-width="1" x1="100.0" x2="300.0" y1="280.924" y2="280.924" /><line id="ray-b1.000" stroke="red" stroke-opacity="1.0" stroke-width="1" x1="100.0" x2="300.0" y1="276.5452" y2="276.5452" /><line id="ray-b1.000" stroke="red" stroke-opacity="1.0" stroke-width="1" x1="100.0" x2="300.0" y1="272.0795" y2="272.0795" /><line id="ray-b1.000" stroke="red" stroke-opacity="1.0" stroke-width="1" x1="100.0" x2="300.0" y1="267.508" y2="267.508" /><line id="ray-b1.000" stroke="red" stroke-opacity="1.0" stroke-width="1" x1="100.0" x2="300.0" y1="262.8103" y2="262.8103" /><line id="ray-b1.000" stroke="red" stroke-opacity="1.0" stroke-width="1" x1="100.0" x2="300.0" y1="257.9639" y2="257.9639" /><line id="ray-b1.000" stroke="red" stroke-opacity="1.0" stroke-width="1" x1="100.0" x2="300.0" y1="252.9436" y2="252.9436" /><line id="ray-b1.000" stroke="red" stroke-opacity="1.0" stroke-width="1" x1="100.0" x2="300.0" y1="247.7213" y2="247.7213" /><line id="ray-b1.000" stroke="red" stroke-opacity="1.0" stroke-width="1" x1="100.0" x2="300.0" y1="242.265" y2="242.265" /><line id="ray-b1.000" stroke="red" stroke-opacity="1.0" stroke-width="1" x1="100.0" x2="300.0" y1="236.5381" y2="236.5381" /><line id="ray-b1.000" stroke="red" stroke-opacity="1.0" stroke-width="1" x1="100.0" x2="300.0" y1="230.4982" y2="230.4982" /><line id="ray-b1.000" stroke="red" stroke-opacity="1.0" stroke-width="1" x1="100.0" x2="300.0" y1="224.0959" y2="224.0959" /><line id="ray-b1.000" stroke="red" stroke-opacity="1.0" stroke-width="1" x1="100.0" x2="300.0" y1="217.2728" y2="217.2728" /><line id="ray-b1.000" stroke="red" stroke-opacity="1.0" stroke-width="1" x1="100.0" x2="300.0" y1="209.9596" y2="209.9596" /><line id="ray-b1.000" stroke="red" stroke-opacity="1.0" stroke-width="1" x1="100.0" x2="300.0" y1="202.0728" y2="202.0728" /></g><g id="labels" transform="scale(1, -1)"><text fill="orange" font-family="sans-serif" font-size="12px" transform="scale(1, -1)" x="7.0" y="307">Source</text><text fill="blue" font-family="sans-serif" font-size="12px" text-anchor="middle" transform="scale(1, -1)" x="100.0" y="315.0">Lens (f=100)</text><text fill="black" font-family="sans-serif" font-size="12px" text-anchor="middle" transform="scale(1, -1)" x="300.0" y="305.0">Screen</text></g></svg>